<svg width="1728" height="1117" viewBox="0 0 1728 1117" fill="none" xmlns="http://www.w3.org/2000/svg">
<g opacity="0.5">
<path d="M271.119 993.463H244.867V1019.77H271.119V993.463Z" fill="#601933"/>
<path fill-rule="evenodd" clip-rule="evenodd" d="M376.133 1019.77V993.463H349.881V1019.77H376.133Z" fill="#601933"/>
<path d="M376.133 888.23H349.881V914.537H376.133V888.23Z" fill="#601933"/>
<path fill-rule="evenodd" clip-rule="evenodd" d="M244.867 888.23V914.537H271.119V888.23H244.867Z" fill="#601933"/>
<path d="M297.372 1019.77H271.119V1046.08H297.372V1019.77Z" fill="#601933"/>
<path fill-rule="evenodd" clip-rule="evenodd" d="M402.386 993.463V967.156H376.133V993.463H402.386Z" fill="#601933"/>
<path d="M349.881 861.922H323.628V888.23H349.881V861.922Z" fill="#601933"/>
<path fill-rule="evenodd" clip-rule="evenodd" d="M218.614 914.537V940.844H244.867V914.537H218.614Z" fill="#601933"/>
<path d="M349.881 1019.77H323.628V1046.08H349.881V1019.77Z" fill="#601933"/>
<path fill-rule="evenodd" clip-rule="evenodd" d="M402.386 940.844V914.537H376.133V940.844H402.386Z" fill="#601933"/>
<path d="M297.372 861.922H271.119V888.23H297.372V861.922Z" fill="#601933"/>
<path fill-rule="evenodd" clip-rule="evenodd" d="M218.614 967.156V993.463H244.867V967.156H218.614Z" fill="#601933"/>
<path d="M323.624 1046.08H297.372V1072.39H323.624V1046.08Z" fill="#601933"/>
<path fill-rule="evenodd" clip-rule="evenodd" d="M428.638 967.156V940.844H402.386V967.156H428.638Z" fill="#601933"/>
<path d="M323.624 835.615H297.372V861.922H323.624V835.615Z" fill="#601933"/>
<path fill-rule="evenodd" clip-rule="evenodd" d="M192.361 940.844V967.156H218.614V940.844H192.361Z" fill="#601933"/>
<path d="M271.119 1046.08H244.867V1072.39H271.119V1046.08Z" fill="#601933"/>
<path fill-rule="evenodd" clip-rule="evenodd" d="M428.638 1019.77V993.463H402.386V1019.77H428.638Z" fill="#601933"/>
<path d="M376.133 835.615H349.881V861.922H376.133V835.615Z" fill="#601933"/>
<path fill-rule="evenodd" clip-rule="evenodd" d="M192.361 888.23V914.537H218.614V888.23H192.361Z" fill="#601933"/>
<path d="M297.372 1072.39H271.119V1098.69H297.372V1072.39Z" fill="#601933"/>
<path fill-rule="evenodd" clip-rule="evenodd" d="M454.891 993.463V967.156H428.639V993.463H454.891Z" fill="#601933"/>
<path d="M349.881 809.307H323.628V835.615H349.881V809.307Z" fill="#601933"/>
<path fill-rule="evenodd" clip-rule="evenodd" d="M166.109 914.537V940.844H192.361V914.537H166.109Z" fill="#601933"/>
<path d="M271.119 1098.69H244.867V1125H271.119V1098.69Z" fill="#601933"/>
<path fill-rule="evenodd" clip-rule="evenodd" d="M481.144 1019.77V993.463H454.891V1019.77H481.144Z" fill="#601933"/>
<path d="M376.133 783H349.881V809.307H376.133V783Z" fill="#601933"/>
<path fill-rule="evenodd" clip-rule="evenodd" d="M139.856 888.23V914.537H166.109V888.23H139.856Z" fill="#601933"/>
<path d="M297.372 914.537H271.119V940.844H297.372V914.537Z" fill="#601933"/>
<path fill-rule="evenodd" clip-rule="evenodd" d="M297.372 993.463V967.156H271.119V993.463H297.372Z" fill="#601933"/>
<path d="M349.881 967.156H323.628V993.463H349.881V967.156Z" fill="#601933"/>
<path fill-rule="evenodd" clip-rule="evenodd" d="M323.628 914.537V940.844H349.881V914.537H323.628Z" fill="#601933"/>
<path d="M271.119 940.844H244.867V967.152H271.119V940.844Z" fill="#601933"/>
<path fill-rule="evenodd" clip-rule="evenodd" d="M323.628 1019.77V993.463H297.372V1019.77H323.628Z" fill="#601933"/>
<path d="M376.133 940.844H349.881V967.152H376.133V940.844Z" fill="#601933"/>
<path fill-rule="evenodd" clip-rule="evenodd" d="M297.372 888.23V914.537H323.628V888.23H297.372Z" fill="#601933"/>
<g clip-path="url(#clip0_21_2060)">
<path d="M207.901 319.757L183.99 346.098L210.399 370.071L234.31 343.731L207.901 319.757Z" fill="#601933"/>
<path fill-rule="evenodd" clip-rule="evenodd" d="M329.957 238.365L303.548 214.392L279.637 240.732L306.046 264.705L329.957 238.365Z" fill="#601933"/>
<path d="M197.908 118.495L173.997 144.836L200.406 168.809L224.317 142.469L197.908 118.495Z" fill="#601933"/>
<path fill-rule="evenodd" clip-rule="evenodd" d="M78.3496 250.202L104.759 274.175L128.67 247.834L102.261 223.861L78.3496 250.202Z" fill="#601933"/>
<path d="M258.221 317.39L234.31 343.731L260.719 367.704L284.63 341.363L258.221 317.39Z" fill="#601933"/>
<path fill-rule="evenodd" clip-rule="evenodd" d="M327.459 188.051L301.05 164.078L277.139 190.418L303.548 214.392L327.459 188.051Z" fill="#601933"/>
<path d="M147.588 120.863L123.677 147.203L150.086 171.176L173.997 144.836L147.588 120.863Z" fill="#601933"/>
<path fill-rule="evenodd" clip-rule="evenodd" d="M80.8477 300.515L107.257 324.488L131.168 298.148L104.759 274.175L80.8477 300.515Z" fill="#601933"/>
<path d="M306.046 264.705L282.135 291.046L308.544 315.019L332.455 288.679L306.046 264.705Z" fill="#601933"/>
<path fill-rule="evenodd" clip-rule="evenodd" d="M274.637 140.101L248.228 116.128L224.317 142.469L250.726 166.442L274.637 140.101Z" fill="#601933"/>
<path d="M99.7625 173.547L75.8516 199.888L102.261 223.861L126.172 197.521L99.7625 173.547Z" fill="#601933"/>
<path fill-rule="evenodd" clip-rule="evenodd" d="M133.67 348.465L160.079 372.438L183.99 346.098L157.581 322.125L133.67 348.465Z" fill="#601933"/>
<path d="M308.541 315.023L284.63 341.363L311.039 365.337L334.95 338.996L308.541 315.023Z" fill="#601933"/>
<path fill-rule="evenodd" clip-rule="evenodd" d="M324.961 137.738L298.548 113.761L274.637 140.101L301.05 164.078L324.961 137.738Z" fill="#601933"/>
<path d="M97.2645 123.234L73.3535 149.574L99.7626 173.547L123.674 147.207L97.2645 123.234Z" fill="#601933"/>
<path fill-rule="evenodd" clip-rule="evenodd" d="M83.3462 350.829L109.759 374.806L133.67 348.465L107.257 324.488L83.3462 350.829Z" fill="#601933"/>
<path d="M260.719 367.704L236.808 394.044L263.217 418.018L287.128 391.677L260.719 367.704Z" fill="#601933"/>
<path fill-rule="evenodd" clip-rule="evenodd" d="M377.779 185.684L351.37 161.711L327.459 188.051L353.868 212.024L377.779 185.684Z" fill="#601933"/>
<path d="M145.09 70.5489L121.179 96.8893L147.588 120.863L171.499 94.5221L145.09 70.5489Z" fill="#601933"/>
<path fill-rule="evenodd" clip-rule="evenodd" d="M30.5278 302.882L56.9369 326.856L80.8479 300.515L54.4388 276.542L30.5278 302.882Z" fill="#601933"/>
<path d="M311.039 365.337L287.128 391.677L313.538 415.65L337.448 389.31L311.039 365.337Z" fill="#601933"/>
<path fill-rule="evenodd" clip-rule="evenodd" d="M375.281 135.37L348.872 111.397L324.961 137.737L351.37 161.711L375.281 135.37Z" fill="#601933"/>
<path d="M94.7698 72.9161L70.8589 99.2566L97.268 123.23L121.179 96.8893L94.7698 72.9161Z" fill="#601933"/>
<path fill-rule="evenodd" clip-rule="evenodd" d="M33.0259 353.196L59.435 377.169L83.3459 350.829L56.9368 326.856L33.0259 353.196Z" fill="#601933"/>
<path d="M313.537 415.65L289.626 441.991L316.036 465.964L339.946 439.624L313.537 415.65Z" fill="#601933"/>
<path fill-rule="evenodd" clip-rule="evenodd" d="M425.601 133.003L399.192 109.03L375.281 135.37L401.69 159.344L425.601 133.003Z" fill="#601933"/>
<path d="M92.2713 22.6024L68.3604 48.9429L94.7694 72.9161L118.68 46.5756L92.2713 22.6024Z" fill="#601933"/>
<path fill-rule="evenodd" clip-rule="evenodd" d="M-17.2939 355.563L9.11515 379.537L33.0261 353.196L6.617 329.223L-17.2939 355.563Z" fill="#601933"/>
<path d="M152.581 221.494L128.67 247.834L155.079 271.807L178.99 245.467L152.581 221.494Z" fill="#601933"/>
<path fill-rule="evenodd" clip-rule="evenodd" d="M231.812 293.417L205.403 269.444L181.492 295.784L207.901 319.757L231.812 293.417Z" fill="#601933"/>
<path d="M253.228 216.759L229.317 243.099L255.726 267.073L279.637 240.732L253.228 216.759Z" fill="#601933"/>
<path fill-rule="evenodd" clip-rule="evenodd" d="M176.495 195.15L202.904 219.123L226.815 192.782L200.406 168.809L176.495 195.15Z" fill="#601933"/>
<path d="M155.079 271.807L131.168 298.148L157.577 322.121L181.488 295.781L155.079 271.807Z" fill="#601933"/>
<path fill-rule="evenodd" clip-rule="evenodd" d="M282.136 291.046L255.726 267.073L231.812 293.417L258.221 317.39L282.136 291.046Z" fill="#601933"/>
<path d="M250.726 166.442L226.815 192.782L253.224 216.755L277.135 190.415L250.726 166.442Z" fill="#601933"/>
<path fill-rule="evenodd" clip-rule="evenodd" d="M126.171 197.521L152.58 221.494L176.495 195.149L150.086 171.176L126.171 197.521Z" fill="#601933"/>
</g>
<path d="M38.9666 790.097L3.78076 784.852L-1.47824 820.129L33.7076 825.375L38.9666 790.097Z" fill="#601933"/>
<path fill-rule="evenodd" clip-rule="evenodd" d="M174.456 846.357L179.715 811.079L144.529 805.834L139.27 841.111L174.456 846.357Z" fill="#601933"/>
<path d="M200.752 669.964L165.566 664.719L160.307 699.996L195.493 705.242L200.752 669.964Z" fill="#601933"/>
<path fill-rule="evenodd" clip-rule="evenodd" d="M24.8174 643.737L19.5584 679.014L54.7442 684.26L60.0032 648.982L24.8174 643.737Z" fill="#601933"/>
<path d="M68.8933 830.62L33.7075 825.374L28.4485 860.652L63.6343 865.897L68.8933 830.62Z" fill="#601933"/>
<path fill-rule="evenodd" clip-rule="evenodd" d="M214.9 816.324L220.159 781.047L184.974 775.802L179.715 811.079L214.9 816.324Z" fill="#601933"/>
<path d="M170.825 629.441L135.639 624.196L130.38 659.474L165.566 664.719L170.825 629.441Z" fill="#601933"/>
<path fill-rule="evenodd" clip-rule="evenodd" d="M-15.6274 673.769L-20.8864 709.046L14.2994 714.292L19.5584 679.014L-15.6274 673.769Z" fill="#601933"/>
<path d="M139.27 841.111L104.084 835.866L98.8255 871.143L134.011 876.389L139.27 841.111Z" fill="#601933"/>
<path fill-rule="evenodd" clip-rule="evenodd" d="M225.419 745.764L230.678 710.487L195.493 705.242L190.234 740.519L225.419 745.764Z" fill="#601933"/>
<path d="M100.448 618.95L65.2622 613.705L60.0032 648.982L95.189 654.227L100.448 618.95Z" fill="#601933"/>
<path fill-rule="evenodd" clip-rule="evenodd" d="M-26.146 744.329L-31.405 779.606L3.78081 784.852L9.03981 749.574L-26.146 744.329Z" fill="#601933"/>
<path d="M98.8201 871.143L63.6343 865.897L58.3753 901.175L93.5611 906.42L98.8201 871.143Z" fill="#601933"/>
<path fill-rule="evenodd" clip-rule="evenodd" d="M255.345 786.292L260.605 751.01L225.419 745.764L220.16 781.047L255.345 786.292Z" fill="#601933"/>
<path d="M140.893 588.918L105.707 583.673L100.448 618.95L135.634 624.195L140.893 588.918Z" fill="#601933"/>
<path d="M28.4485 860.652L-6.7373 855.407L-11.9963 890.684L23.1895 895.929L28.4485 860.652Z" fill="#601933"/>
<path fill-rule="evenodd" clip-rule="evenodd" d="M244.827 856.847L250.086 821.57L214.9 816.324L209.641 851.602L244.827 856.847Z" fill="#601933"/>
<path d="M211.27 599.409L176.084 594.164L170.825 629.441L206.011 634.687L211.27 599.409Z" fill="#601933"/>
<path d="M58.3752 901.175L23.1895 895.929L17.9304 931.207L53.1162 936.452L58.3752 901.175Z" fill="#601933"/>
<path fill-rule="evenodd" clip-rule="evenodd" d="M285.273 826.815L290.532 791.538L255.346 786.292L250.087 821.57L285.273 826.815Z" fill="#601933"/>
<path d="M181.343 558.887L146.157 553.641L140.898 588.919L176.084 594.164L181.343 558.887Z" fill="#601933"/>
<path d="M17.9304 931.207L-17.2554 925.962L-22.5144 961.239L12.6714 966.484L17.9304 931.207Z" fill="#601933"/>
<path fill-rule="evenodd" clip-rule="evenodd" d="M315.199 867.338L320.458 832.06L285.272 826.815L280.013 862.093L315.199 867.338Z" fill="#601933"/>
<path d="M221.787 528.854L186.602 523.609L181.343 558.887L216.528 564.132L221.787 528.854Z" fill="#601933"/>
<path d="M89.9299 689.505L54.7441 684.26L49.4851 719.537L84.6709 724.782L89.9299 689.505Z" fill="#601933"/>
<path fill-rule="evenodd" clip-rule="evenodd" d="M74.1524 795.342L79.4114 760.065L44.2256 754.82L38.9666 790.097L74.1524 795.342Z" fill="#601933"/>
<path d="M149.788 770.556L114.602 765.311L109.343 800.588L144.529 805.834L149.788 770.556Z" fill="#601933"/>
<path fill-rule="evenodd" clip-rule="evenodd" d="M125.121 694.751L119.862 730.028L155.048 735.274L160.307 699.996L125.121 694.751Z" fill="#601933"/>
<path d="M49.4851 719.537L14.2993 714.292L9.04032 749.569L44.2261 754.814L49.4851 719.537Z" fill="#601933"/>
<path fill-rule="evenodd" clip-rule="evenodd" d="M104.084 835.866L109.343 800.588L74.1523 795.342L68.8933 830.62L104.084 835.866Z" fill="#601933"/>
<path d="M190.234 740.519L155.048 735.274L149.789 770.551L184.975 775.797L190.234 740.519Z" fill="#601933"/>
<path fill-rule="evenodd" clip-rule="evenodd" d="M95.189 654.227L89.93 689.505L125.121 694.751L130.38 659.474L95.189 654.227Z" fill="#601933"/>
<path d="M456.967 227.097L421.781 221.852L416.522 257.129L451.708 262.375L456.967 227.097Z" fill="#601933"/>
<path fill-rule="evenodd" clip-rule="evenodd" d="M592.456 283.357L597.715 248.079L562.529 242.834L557.27 278.111L592.456 283.357Z" fill="#601933"/>
<path d="M618.752 106.964L583.566 101.719L578.307 136.996L613.493 142.242L618.752 106.964Z" fill="#601933"/>
<path fill-rule="evenodd" clip-rule="evenodd" d="M442.817 80.7368L437.558 116.014L472.744 121.26L478.003 85.9821L442.817 80.7368Z" fill="#601933"/>
<path d="M486.893 267.62L451.708 262.374L446.449 297.652L481.634 302.897L486.893 267.62Z" fill="#601933"/>
<path fill-rule="evenodd" clip-rule="evenodd" d="M632.9 253.324L638.159 218.047L602.974 212.802L597.715 248.079L632.9 253.324Z" fill="#601933"/>
<path d="M588.825 66.4414L553.639 61.1961L548.38 96.4736L583.566 101.719L588.825 66.4414Z" fill="#601933"/>
<path fill-rule="evenodd" clip-rule="evenodd" d="M402.373 110.769L397.114 146.046L432.299 151.292L437.558 116.014L402.373 110.769Z" fill="#601933"/>
<path d="M557.27 278.111L522.084 272.866L516.825 308.143L552.011 313.389L557.27 278.111Z" fill="#601933"/>
<path fill-rule="evenodd" clip-rule="evenodd" d="M643.419 182.764L648.678 147.487L613.493 142.242L608.234 177.519L643.419 182.764Z" fill="#601933"/>
<path d="M518.448 55.95L483.262 50.7047L478.003 85.9821L513.189 91.2275L518.448 55.95Z" fill="#601933"/>
<path fill-rule="evenodd" clip-rule="evenodd" d="M391.854 181.329L386.595 216.606L421.781 221.852L427.04 186.574L391.854 181.329Z" fill="#601933"/>
<path d="M516.82 308.143L481.634 302.897L476.375 338.175L511.561 343.42L516.82 308.143Z" fill="#601933"/>
<path fill-rule="evenodd" clip-rule="evenodd" d="M673.345 223.292L678.605 188.01L643.419 182.764L638.16 218.047L673.345 223.292Z" fill="#601933"/>
<path d="M558.893 25.9179L523.707 20.6725L518.448 55.95L553.634 61.1953L558.893 25.9179Z" fill="#601933"/>
<path fill-rule="evenodd" clip-rule="evenodd" d="M361.928 140.801L356.668 176.084L391.854 181.329L397.114 146.046L361.928 140.801Z" fill="#601933"/>
<path d="M446.448 297.652L411.263 292.407L406.004 327.684L441.189 332.929L446.448 297.652Z" fill="#601933"/>
<path fill-rule="evenodd" clip-rule="evenodd" d="M662.827 293.847L668.086 258.57L632.9 253.324L627.641 288.602L662.827 293.847Z" fill="#601933"/>
<path d="M629.27 36.4093L594.084 31.164L588.825 66.4414L624.011 71.6868L629.27 36.4093Z" fill="#601933"/>
<path fill-rule="evenodd" clip-rule="evenodd" d="M372.446 70.2461L367.187 105.524L402.373 110.769L407.632 75.4915L372.446 70.2461Z" fill="#601933"/>
<path d="M476.375 338.175L441.189 332.929L435.93 368.207L471.116 373.452L476.375 338.175Z" fill="#601933"/>
<path fill-rule="evenodd" clip-rule="evenodd" d="M703.273 263.815L708.532 228.538L673.346 223.292L668.087 258.57L703.273 263.815Z" fill="#601933"/>
<path d="M599.343 -4.11346L564.157 -9.3588L558.898 25.9187L594.084 31.164L599.343 -4.11346Z" fill="#601933"/>
<path fill-rule="evenodd" clip-rule="evenodd" d="M332.001 100.278L326.742 135.556L361.928 140.801L367.187 105.524L332.001 100.278Z" fill="#601933"/>
<path d="M435.93 368.207L400.745 362.962L395.486 398.239L430.671 403.484L435.93 368.207Z" fill="#601933"/>
<path fill-rule="evenodd" clip-rule="evenodd" d="M733.199 304.338L738.458 269.06L703.272 263.815L698.013 299.093L733.199 304.338Z" fill="#601933"/>
<path d="M639.787 -34.1456L604.602 -39.3909L599.343 -4.11347L634.528 1.13186L639.787 -34.1456Z" fill="#601933"/>
<path fill-rule="evenodd" clip-rule="evenodd" d="M302.074 59.7554L296.815 95.0329L332.001 100.278L337.26 65.0008L302.074 59.7554Z" fill="#601933"/>
<path d="M507.93 126.505L472.744 121.26L467.485 156.537L502.671 161.782L507.93 126.505Z" fill="#601933"/>
<path fill-rule="evenodd" clip-rule="evenodd" d="M492.152 232.342L497.411 197.065L462.226 191.82L456.967 227.097L492.152 232.342Z" fill="#601933"/>
<path d="M567.788 207.556L532.602 202.311L527.343 237.588L562.529 242.834L567.788 207.556Z" fill="#601933"/>
<path fill-rule="evenodd" clip-rule="evenodd" d="M543.121 131.751L537.862 167.028L573.048 172.274L578.307 136.996L543.121 131.751Z" fill="#601933"/>
<path d="M467.485 156.537L432.299 151.292L427.04 186.569L462.226 191.814L467.485 156.537Z" fill="#601933"/>
<path fill-rule="evenodd" clip-rule="evenodd" d="M522.084 272.866L527.343 237.588L492.152 232.342L486.893 267.62L522.084 272.866Z" fill="#601933"/>
<path d="M608.234 177.519L573.048 172.274L567.789 207.551L602.975 212.797L608.234 177.519Z" fill="#601933"/>
<path fill-rule="evenodd" clip-rule="evenodd" d="M513.189 91.2274L507.93 126.505L543.121 131.751L548.38 96.4735L513.189 91.2274Z" fill="#601933"/>
<path d="M375.234 635.321L344.161 629.97L338.784 661.19L369.857 666.541L375.234 635.321Z" fill="#601933"/>
<path fill-rule="evenodd" clip-rule="evenodd" d="M494.154 687.948L499.531 656.728L468.458 651.376L463.081 682.596L494.154 687.948Z" fill="#601933"/>
<path d="M521.038 531.843L489.965 526.492L484.589 557.712L515.662 563.063L521.038 531.843Z" fill="#601933"/>
<path fill-rule="evenodd" clip-rule="evenodd" d="M365.669 505.085L360.292 536.305L391.365 541.657L396.742 510.437L365.669 505.085Z" fill="#601933"/>
<path d="M400.93 671.893L369.857 666.541L364.481 697.761L395.554 703.113L400.93 671.893Z" fill="#601933"/>
<path fill-rule="evenodd" clip-rule="evenodd" d="M530.604 662.079L535.981 630.859L504.908 625.508L499.531 656.728L530.604 662.079Z" fill="#601933"/>
<path d="M495.342 495.272L464.269 489.92L458.892 521.14L489.965 526.492L495.342 495.272Z" fill="#601933"/>
<path fill-rule="evenodd" clip-rule="evenodd" d="M329.219 530.954L323.843 562.174L354.916 567.525L360.292 536.305L329.219 530.954Z" fill="#601933"/>
<path d="M463.081 682.596L432.008 677.245L426.632 708.465L457.705 713.816L463.081 682.596Z" fill="#601933"/>
<path fill-rule="evenodd" clip-rule="evenodd" d="M541.358 599.634L546.735 568.414L515.662 563.063L510.285 594.283L541.358 599.634Z" fill="#601933"/>
<path d="M433.192 484.568L402.119 479.217L396.742 510.437L427.815 515.788L433.192 484.568Z" fill="#601933"/>
<path fill-rule="evenodd" clip-rule="evenodd" d="M318.465 593.398L313.088 624.619L344.161 629.97L349.538 598.75L318.465 593.398Z" fill="#601933"/>
<path d="M426.627 708.464L395.554 703.113L390.177 734.333L421.25 739.684L426.627 708.464Z" fill="#601933"/>
<path fill-rule="evenodd" clip-rule="evenodd" d="M567.054 636.21L572.431 604.986L541.358 599.634L535.981 630.859L567.054 636.21Z" fill="#601933"/>
<path d="M469.641 458.699L438.568 453.348L433.192 484.568L464.265 489.919L469.641 458.699Z" fill="#601933"/>
<path fill-rule="evenodd" clip-rule="evenodd" d="M292.77 556.823L287.392 588.047L318.465 593.398L323.843 562.174L292.77 556.823Z" fill="#601933"/>
<path d="M364.481 697.761L333.408 692.41L328.031 723.63L359.104 728.981L364.481 697.761Z" fill="#601933"/>
<path fill-rule="evenodd" clip-rule="evenodd" d="M556.3 698.651L561.677 667.43L530.604 662.079L525.227 693.299L556.3 698.651Z" fill="#601933"/>
<path d="M531.792 469.403L500.719 464.052L495.342 495.272L526.415 500.623L531.792 469.403Z" fill="#601933"/>
<path fill-rule="evenodd" clip-rule="evenodd" d="M303.523 494.382L298.146 525.603L329.219 530.954L334.596 499.734L303.523 494.382Z" fill="#601933"/>
<path d="M390.177 734.333L359.104 728.981L353.727 760.202L384.8 765.553L390.177 734.333Z" fill="#601933"/>
<path fill-rule="evenodd" clip-rule="evenodd" d="M592.75 672.782L598.127 641.562L567.054 636.21L561.677 667.43L592.75 672.782Z" fill="#601933"/>
<path d="M506.095 432.831L475.022 427.48L469.646 458.7L500.719 464.052L506.095 432.831Z" fill="#601933"/>
<path fill-rule="evenodd" clip-rule="evenodd" d="M267.073 520.251L261.696 551.471L292.769 556.823L298.146 525.603L267.073 520.251Z" fill="#601933"/>
<path d="M353.727 760.202L322.654 754.85L317.278 786.07L348.351 791.422L353.727 760.202Z" fill="#601933"/>
<path fill-rule="evenodd" clip-rule="evenodd" d="M618.446 709.353L623.823 678.133L592.75 672.782L587.373 704.002L618.446 709.353Z" fill="#601933"/>
<path d="M542.545 406.963L511.472 401.611L506.095 432.831L537.169 438.183L542.545 406.963Z" fill="#601933"/>
<path fill-rule="evenodd" clip-rule="evenodd" d="M241.376 483.68L236 514.9L267.073 520.251L272.45 489.031L241.376 483.68Z" fill="#601933"/>
<path d="M422.438 547.008L391.365 541.657L385.989 572.877L417.062 578.228L422.438 547.008Z" fill="#601933"/>
<path fill-rule="evenodd" clip-rule="evenodd" d="M406.307 640.673L411.684 609.453L380.611 604.101L375.234 635.321L406.307 640.673Z" fill="#601933"/>
<path d="M473.835 620.156L442.762 614.805L437.385 646.025L468.458 651.376L473.835 620.156Z" fill="#601933"/>
<path fill-rule="evenodd" clip-rule="evenodd" d="M453.516 552.36L448.139 583.58L479.212 588.932L484.589 557.712L453.516 552.36Z" fill="#601933"/>
<path d="M385.989 572.877L354.916 567.525L349.539 598.745L380.612 604.097L385.989 572.877Z" fill="#601933"/>
<path fill-rule="evenodd" clip-rule="evenodd" d="M432.008 677.245L437.385 646.025L406.307 640.673L400.93 671.893L432.008 677.245Z" fill="#601933"/>
<path d="M510.285 594.283L479.212 588.932L473.835 620.152L504.908 625.503L510.285 594.283Z" fill="#601933"/>
<path fill-rule="evenodd" clip-rule="evenodd" d="M427.815 515.788L422.438 547.008L453.516 552.36L458.892 521.14L427.815 515.788Z" fill="#601933"/>
</g>
<g opacity="0.5">
<path d="M912.12 1115.46H885.867V1141.77H912.12V1115.46Z" fill="#601933"/>
<path fill-rule="evenodd" clip-rule="evenodd" d="M1017.13 1141.77V1115.46H990.881V1141.77H1017.13Z" fill="#601933"/>
<path d="M1017.13 1010.23H990.881V1036.54H1017.13V1010.23Z" fill="#601933"/>
<path fill-rule="evenodd" clip-rule="evenodd" d="M885.867 1010.23V1036.54H912.12V1010.23H885.867Z" fill="#601933"/>
<path fill-rule="evenodd" clip-rule="evenodd" d="M1043.39 1115.46V1089.16H1017.13V1115.46H1043.39Z" fill="#601933"/>
<path d="M990.88 983.922H964.628V1010.23H990.88V983.922Z" fill="#601933"/>
<path fill-rule="evenodd" clip-rule="evenodd" d="M859.614 1036.54V1062.84H885.867V1036.54H859.614Z" fill="#601933"/>
<path fill-rule="evenodd" clip-rule="evenodd" d="M1043.39 1062.84V1036.54H1017.13V1062.84H1043.39Z" fill="#601933"/>
<path d="M938.372 983.922H912.119V1010.23H938.372V983.922Z" fill="#601933"/>
<path fill-rule="evenodd" clip-rule="evenodd" d="M859.614 1089.16V1115.46H885.867V1089.16H859.614Z" fill="#601933"/>
<path fill-rule="evenodd" clip-rule="evenodd" d="M1069.64 1089.16V1062.84H1043.39V1089.16H1069.64Z" fill="#601933"/>
<path d="M964.625 957.615H938.372V983.922H964.625V957.615Z" fill="#601933"/>
<path fill-rule="evenodd" clip-rule="evenodd" d="M833.361 1062.84V1089.16H859.614V1062.84H833.361Z" fill="#601933"/>
<path fill-rule="evenodd" clip-rule="evenodd" d="M1069.64 1141.77V1115.46H1043.39V1141.77H1069.64Z" fill="#601933"/>
<path d="M1017.13 957.615H990.881V983.922H1017.13V957.615Z" fill="#601933"/>
<path fill-rule="evenodd" clip-rule="evenodd" d="M833.361 1010.23V1036.54H859.614V1010.23H833.361Z" fill="#601933"/>
<path fill-rule="evenodd" clip-rule="evenodd" d="M1095.89 1115.46V1089.16H1069.64V1115.46H1095.89Z" fill="#601933"/>
<path d="M990.88 931.307H964.628V957.615H990.88V931.307Z" fill="#601933"/>
<path fill-rule="evenodd" clip-rule="evenodd" d="M807.109 1036.54V1062.84H833.361V1036.54H807.109Z" fill="#601933"/>
<path fill-rule="evenodd" clip-rule="evenodd" d="M1122.14 1141.77V1115.46H1095.89V1141.77H1122.14Z" fill="#601933"/>
<path d="M1017.13 905H990.881V931.307H1017.13V905Z" fill="#601933"/>
<path fill-rule="evenodd" clip-rule="evenodd" d="M780.856 1010.23V1036.54H807.109V1010.23H780.856Z" fill="#601933"/>
<path d="M938.372 1036.54H912.119V1062.84H938.372V1036.54Z" fill="#601933"/>
<path fill-rule="evenodd" clip-rule="evenodd" d="M938.372 1115.46V1089.16H912.119V1115.46H938.372Z" fill="#601933"/>
<path d="M990.88 1089.16H964.628V1115.46H990.88V1089.16Z" fill="#601933"/>
<path fill-rule="evenodd" clip-rule="evenodd" d="M964.628 1036.54V1062.84H990.88V1036.54H964.628Z" fill="#601933"/>
<path d="M912.12 1062.84H885.867V1089.15H912.12V1062.84Z" fill="#601933"/>
<path fill-rule="evenodd" clip-rule="evenodd" d="M964.628 1141.77V1115.46H938.372V1141.77H964.628Z" fill="#601933"/>
<path d="M1017.13 1062.84H990.881V1089.15H1017.13V1062.84Z" fill="#601933"/>
<path fill-rule="evenodd" clip-rule="evenodd" d="M938.372 1010.23V1036.54H964.628V1010.23H938.372Z" fill="#601933"/>
<g clip-path="url(#clip1_21_2060)">
<path d="M848.901 441.757L824.99 468.098L851.399 492.071L875.31 465.731L848.901 441.757Z" fill="#601933"/>
<path fill-rule="evenodd" clip-rule="evenodd" d="M970.957 360.365L944.548 336.392L920.637 362.732L947.046 386.705L970.957 360.365Z" fill="#601933"/>
<path d="M838.908 240.495L814.997 266.836L841.406 290.809L865.317 264.469L838.908 240.495Z" fill="#601933"/>
<path fill-rule="evenodd" clip-rule="evenodd" d="M719.35 372.201L745.759 396.175L769.67 369.834L743.261 345.861L719.35 372.201Z" fill="#601933"/>
<path d="M899.22 439.39L875.31 465.731L901.719 489.704L925.63 463.363L899.22 439.39Z" fill="#601933"/>
<path fill-rule="evenodd" clip-rule="evenodd" d="M968.459 310.051L942.05 286.078L918.139 312.418L944.548 336.392L968.459 310.051Z" fill="#601933"/>
<path d="M788.588 242.863L764.677 269.203L791.086 293.176L814.997 266.836L788.588 242.863Z" fill="#601933"/>
<path fill-rule="evenodd" clip-rule="evenodd" d="M721.848 422.515L748.257 446.488L772.168 420.148L745.759 396.175L721.848 422.515Z" fill="#601933"/>
<path d="M947.047 386.705L923.136 413.046L949.545 437.019L973.456 410.679L947.047 386.705Z" fill="#601933"/>
<path fill-rule="evenodd" clip-rule="evenodd" d="M915.637 262.101L889.228 238.128L865.317 264.469L891.726 288.442L915.637 262.101Z" fill="#601933"/>
<path d="M740.762 295.547L716.852 321.888L743.261 345.861L767.172 319.521L740.762 295.547Z" fill="#601933"/>
<path fill-rule="evenodd" clip-rule="evenodd" d="M774.67 470.465L801.079 494.438L824.99 468.098L798.581 444.125L774.67 470.465Z" fill="#601933"/>
<path d="M949.541 437.023L925.63 463.363L952.039 487.337L975.95 460.996L949.541 437.023Z" fill="#601933"/>
<path fill-rule="evenodd" clip-rule="evenodd" d="M965.961 259.738L939.548 235.761L915.637 262.101L942.05 286.078L965.961 259.738Z" fill="#601933"/>
<path d="M738.264 245.234L714.354 271.574L740.763 295.547L764.674 269.207L738.264 245.234Z" fill="#601933"/>
<path fill-rule="evenodd" clip-rule="evenodd" d="M724.346 472.829L750.759 496.806L774.67 470.465L748.257 446.488L724.346 472.829Z" fill="#601933"/>
<path d="M901.72 489.704L877.809 516.044L904.218 540.018L928.129 513.677L901.72 489.704Z" fill="#601933"/>
<path fill-rule="evenodd" clip-rule="evenodd" d="M1018.78 307.684L992.37 283.711L968.459 310.051L994.868 334.024L1018.78 307.684Z" fill="#601933"/>
<path d="M786.09 192.549L762.179 218.889L788.588 242.863L812.499 216.522L786.09 192.549Z" fill="#601933"/>
<path fill-rule="evenodd" clip-rule="evenodd" d="M671.528 424.882L697.937 448.856L721.848 422.515L695.439 398.542L671.528 424.882Z" fill="#601933"/>
<path d="M952.039 487.337L928.128 513.677L954.537 537.65L978.448 511.31L952.039 487.337Z" fill="#601933"/>
<path fill-rule="evenodd" clip-rule="evenodd" d="M1016.28 257.37L989.872 233.397L965.961 259.738L992.37 283.711L1016.28 257.37Z" fill="#601933"/>
<path d="M735.77 194.916L711.859 221.257L738.268 245.23L762.179 218.889L735.77 194.916Z" fill="#601933"/>
<path fill-rule="evenodd" clip-rule="evenodd" d="M674.026 475.196L700.435 499.169L724.346 472.829L697.937 448.856L674.026 475.196Z" fill="#601933"/>
<path d="M954.537 537.65L930.626 563.991L957.035 587.964L980.946 561.624L954.537 537.65Z" fill="#601933"/>
<path fill-rule="evenodd" clip-rule="evenodd" d="M1066.6 255.003L1040.19 231.03L1016.28 257.37L1042.69 281.343L1066.6 255.003Z" fill="#601933"/>
<path d="M733.271 144.602L709.36 170.943L735.769 194.916L759.68 168.576L733.271 144.602Z" fill="#601933"/>
<path fill-rule="evenodd" clip-rule="evenodd" d="M623.706 477.563L650.115 501.537L674.026 475.196L647.617 451.223L623.706 477.563Z" fill="#601933"/>
<path d="M793.581 343.494L769.67 369.834L796.079 393.807L819.99 367.467L793.581 343.494Z" fill="#601933"/>
<path fill-rule="evenodd" clip-rule="evenodd" d="M872.812 415.417L846.403 391.444L822.492 417.784L848.901 441.757L872.812 415.417Z" fill="#601933"/>
<path d="M894.228 338.759L870.317 365.099L896.726 389.073L920.637 362.732L894.228 338.759Z" fill="#601933"/>
<path fill-rule="evenodd" clip-rule="evenodd" d="M817.495 317.149L843.904 341.123L867.815 314.782L841.406 290.809L817.495 317.149Z" fill="#601933"/>
<path d="M796.079 393.807L772.168 420.148L798.577 444.121L822.488 417.781L796.079 393.807Z" fill="#601933"/>
<path fill-rule="evenodd" clip-rule="evenodd" d="M923.135 413.046L896.726 389.073L872.812 415.417L899.221 439.39L923.135 413.046Z" fill="#601933"/>
<path d="M891.726 288.442L867.815 314.782L894.225 338.755L918.135 312.415L891.726 288.442Z" fill="#601933"/>
<path fill-rule="evenodd" clip-rule="evenodd" d="M767.171 319.521L793.58 343.494L817.495 317.149L791.086 293.176L767.171 319.521Z" fill="#601933"/>
</g>
<path d="M679.967 912.097L644.781 906.852L639.522 942.129L674.708 947.375L679.967 912.097Z" fill="#601933"/>
<path fill-rule="evenodd" clip-rule="evenodd" d="M815.456 968.357L820.715 933.079L785.529 927.834L780.27 963.111L815.456 968.357Z" fill="#601933"/>
<path d="M841.752 791.964L806.566 786.719L801.307 821.996L836.493 827.242L841.752 791.964Z" fill="#601933"/>
<path fill-rule="evenodd" clip-rule="evenodd" d="M665.817 765.737L660.558 801.014L695.744 806.26L701.003 770.982L665.817 765.737Z" fill="#601933"/>
<path d="M709.893 952.62L674.708 947.374L669.449 982.652L704.634 987.897L709.893 952.62Z" fill="#601933"/>
<path fill-rule="evenodd" clip-rule="evenodd" d="M855.9 938.324L861.159 903.047L825.974 897.802L820.715 933.079L855.9 938.324Z" fill="#601933"/>
<path d="M811.825 751.441L776.639 746.196L771.38 781.474L806.566 786.719L811.825 751.441Z" fill="#601933"/>
<path fill-rule="evenodd" clip-rule="evenodd" d="M625.373 795.769L620.114 831.046L655.299 836.292L660.558 801.014L625.373 795.769Z" fill="#601933"/>
<path d="M780.27 963.111L745.084 957.866L739.825 993.143L775.011 998.389L780.27 963.111Z" fill="#601933"/>
<path fill-rule="evenodd" clip-rule="evenodd" d="M866.419 867.764L871.678 832.487L836.493 827.242L831.234 862.519L866.419 867.764Z" fill="#601933"/>
<path d="M741.448 740.95L706.262 735.705L701.003 770.982L736.189 776.227L741.448 740.95Z" fill="#601933"/>
<path fill-rule="evenodd" clip-rule="evenodd" d="M614.854 866.329L609.595 901.606L644.781 906.852L650.04 871.574L614.854 866.329Z" fill="#601933"/>
<path d="M739.82 993.143L704.634 987.897L699.375 1023.17L734.561 1028.42L739.82 993.143Z" fill="#601933"/>
<path fill-rule="evenodd" clip-rule="evenodd" d="M896.345 908.292L901.605 873.01L866.419 867.764L861.159 903.047L896.345 908.292Z" fill="#601933"/>
<path d="M781.893 710.918L746.707 705.673L741.448 740.95L776.634 746.195L781.893 710.918Z" fill="#601933"/>
<path fill-rule="evenodd" clip-rule="evenodd" d="M584.928 825.801L579.668 861.084L614.854 866.329L620.114 831.046L584.928 825.801Z" fill="#601933"/>
<path d="M669.448 982.652L634.263 977.407L629.004 1012.68L664.189 1017.93L669.448 982.652Z" fill="#601933"/>
<path fill-rule="evenodd" clip-rule="evenodd" d="M885.827 978.847L891.086 943.57L855.9 938.324L850.641 973.602L885.827 978.847Z" fill="#601933"/>
<path d="M852.27 721.409L817.084 716.164L811.825 751.441L847.011 756.687L852.27 721.409Z" fill="#601933"/>
<path fill-rule="evenodd" clip-rule="evenodd" d="M595.446 755.246L590.187 790.524L625.373 795.769L630.632 760.491L595.446 755.246Z" fill="#601933"/>
<path d="M699.375 1023.17L664.189 1017.93L658.93 1053.21L694.116 1058.45L699.375 1023.17Z" fill="#601933"/>
<path fill-rule="evenodd" clip-rule="evenodd" d="M926.273 948.815L931.532 913.538L896.346 908.292L891.087 943.57L926.273 948.815Z" fill="#601933"/>
<path d="M822.343 680.887L787.157 675.641L781.898 710.919L817.084 716.164L822.343 680.887Z" fill="#601933"/>
<path fill-rule="evenodd" clip-rule="evenodd" d="M555.001 785.278L549.742 820.556L584.928 825.801L590.187 790.524L555.001 785.278Z" fill="#601933"/>
<path d="M658.93 1053.21L623.745 1047.96L618.486 1083.24L653.671 1088.48L658.93 1053.21Z" fill="#601933"/>
<path fill-rule="evenodd" clip-rule="evenodd" d="M956.199 989.338L961.458 954.06L926.272 948.815L921.013 984.093L956.199 989.338Z" fill="#601933"/>
<path d="M862.787 650.854L827.602 645.609L822.343 680.887L857.528 686.132L862.787 650.854Z" fill="#601933"/>
<path fill-rule="evenodd" clip-rule="evenodd" d="M525.074 744.755L519.815 780.033L555.001 785.278L560.26 750.001L525.074 744.755Z" fill="#601933"/>
<path d="M730.93 811.505L695.744 806.26L690.485 841.537L725.671 846.782L730.93 811.505Z" fill="#601933"/>
<path fill-rule="evenodd" clip-rule="evenodd" d="M715.152 917.342L720.411 882.065L685.226 876.82L679.967 912.097L715.152 917.342Z" fill="#601933"/>
<path d="M790.788 892.556L755.602 887.311L750.343 922.588L785.529 927.834L790.788 892.556Z" fill="#601933"/>
<path fill-rule="evenodd" clip-rule="evenodd" d="M766.121 816.751L760.862 852.028L796.048 857.274L801.307 821.996L766.121 816.751Z" fill="#601933"/>
<path d="M690.485 841.537L655.299 836.292L650.04 871.569L685.226 876.814L690.485 841.537Z" fill="#601933"/>
<path fill-rule="evenodd" clip-rule="evenodd" d="M745.084 957.866L750.343 922.588L715.152 917.342L709.893 952.62L745.084 957.866Z" fill="#601933"/>
<path d="M831.234 862.519L796.048 857.274L790.789 892.551L825.975 897.797L831.234 862.519Z" fill="#601933"/>
<path fill-rule="evenodd" clip-rule="evenodd" d="M736.189 776.227L730.93 811.505L766.121 816.751L771.38 781.474L736.189 776.227Z" fill="#601933"/>
<path d="M1097.97 349.097L1062.78 343.852L1057.52 379.129L1092.71 384.375L1097.97 349.097Z" fill="#601933"/>
<path fill-rule="evenodd" clip-rule="evenodd" d="M1233.46 405.357L1238.72 370.079L1203.53 364.834L1198.27 400.111L1233.46 405.357Z" fill="#601933"/>
<path d="M1259.75 228.964L1224.57 223.719L1219.31 258.996L1254.49 264.242L1259.75 228.964Z" fill="#601933"/>
<path fill-rule="evenodd" clip-rule="evenodd" d="M1083.82 202.737L1078.56 238.014L1113.74 243.26L1119 207.982L1083.82 202.737Z" fill="#601933"/>
<path d="M1127.89 389.62L1092.71 384.374L1087.45 419.652L1122.63 424.897L1127.89 389.62Z" fill="#601933"/>
<path fill-rule="evenodd" clip-rule="evenodd" d="M1273.9 375.324L1279.16 340.047L1243.97 334.802L1238.71 370.079L1273.9 375.324Z" fill="#601933"/>
<path d="M1229.82 188.441L1194.64 183.196L1189.38 218.474L1224.57 223.719L1229.82 188.441Z" fill="#601933"/>
<path fill-rule="evenodd" clip-rule="evenodd" d="M1043.37 232.769L1038.11 268.046L1073.3 273.292L1078.56 238.014L1043.37 232.769Z" fill="#601933"/>
<path d="M1198.27 400.111L1163.08 394.866L1157.82 430.143L1193.01 435.389L1198.27 400.111Z" fill="#601933"/>
<path fill-rule="evenodd" clip-rule="evenodd" d="M1284.42 304.764L1289.68 269.487L1254.49 264.242L1249.23 299.519L1284.42 304.764Z" fill="#601933"/>
<path d="M1159.45 177.95L1124.26 172.705L1119 207.982L1154.19 213.227L1159.45 177.95Z" fill="#601933"/>
<path fill-rule="evenodd" clip-rule="evenodd" d="M1032.85 303.329L1027.59 338.606L1062.78 343.852L1068.04 308.574L1032.85 303.329Z" fill="#601933"/>
<path d="M1157.82 430.143L1122.63 424.897L1117.38 460.175L1152.56 465.42L1157.82 430.143Z" fill="#601933"/>
<path fill-rule="evenodd" clip-rule="evenodd" d="M1314.34 345.292L1319.6 310.01L1284.42 304.764L1279.16 340.047L1314.34 345.292Z" fill="#601933"/>
<path d="M1199.89 147.918L1164.71 142.673L1159.45 177.95L1194.63 183.195L1199.89 147.918Z" fill="#601933"/>
<path fill-rule="evenodd" clip-rule="evenodd" d="M1002.93 262.801L997.668 298.084L1032.85 303.329L1038.11 268.046L1002.93 262.801Z" fill="#601933"/>
<path d="M1087.45 419.652L1052.26 414.407L1047 449.684L1082.19 454.929L1087.45 419.652Z" fill="#601933"/>
<path fill-rule="evenodd" clip-rule="evenodd" d="M1303.83 415.847L1309.09 380.57L1273.9 375.324L1268.64 410.602L1303.83 415.847Z" fill="#601933"/>
<path d="M1270.27 158.409L1235.08 153.164L1229.82 188.441L1265.01 193.687L1270.27 158.409Z" fill="#601933"/>
<path fill-rule="evenodd" clip-rule="evenodd" d="M1013.45 192.246L1008.19 227.524L1043.37 232.769L1048.63 197.491L1013.45 192.246Z" fill="#601933"/>
<path d="M1117.38 460.175L1082.19 454.929L1076.93 490.207L1112.12 495.452L1117.38 460.175Z" fill="#601933"/>
<path fill-rule="evenodd" clip-rule="evenodd" d="M1344.27 385.815L1349.53 350.538L1314.35 345.292L1309.09 380.57L1344.27 385.815Z" fill="#601933"/>
<path d="M1240.34 117.887L1205.16 112.641L1199.9 147.919L1235.08 153.164L1240.34 117.887Z" fill="#601933"/>
<path fill-rule="evenodd" clip-rule="evenodd" d="M973.001 222.278L967.742 257.556L1002.93 262.801L1008.19 227.524L973.001 222.278Z" fill="#601933"/>
<path d="M1076.93 490.207L1041.75 484.962L1036.49 520.239L1071.67 525.484L1076.93 490.207Z" fill="#601933"/>
<path fill-rule="evenodd" clip-rule="evenodd" d="M1374.2 426.338L1379.46 391.06L1344.27 385.815L1339.01 421.093L1374.2 426.338Z" fill="#601933"/>
<path d="M1280.79 87.8544L1245.6 82.6091L1240.34 117.887L1275.53 123.132L1280.79 87.8544Z" fill="#601933"/>
<path fill-rule="evenodd" clip-rule="evenodd" d="M943.074 181.755L937.815 217.033L973.001 222.278L978.26 187.001L943.074 181.755Z" fill="#601933"/>
<path d="M1148.93 248.505L1113.74 243.26L1108.49 278.537L1143.67 283.782L1148.93 248.505Z" fill="#601933"/>
<path fill-rule="evenodd" clip-rule="evenodd" d="M1133.15 354.342L1138.41 319.065L1103.23 313.82L1097.97 349.097L1133.15 354.342Z" fill="#601933"/>
<path d="M1208.79 329.556L1173.6 324.311L1168.34 359.588L1203.53 364.834L1208.79 329.556Z" fill="#601933"/>
<path fill-rule="evenodd" clip-rule="evenodd" d="M1184.12 253.751L1178.86 289.028L1214.05 294.274L1219.31 258.996L1184.12 253.751Z" fill="#601933"/>
<path d="M1108.49 278.537L1073.3 273.292L1068.04 308.569L1103.23 313.814L1108.49 278.537Z" fill="#601933"/>
<path fill-rule="evenodd" clip-rule="evenodd" d="M1163.08 394.866L1168.34 359.588L1133.15 354.342L1127.89 389.62L1163.08 394.866Z" fill="#601933"/>
<path d="M1249.23 299.519L1214.05 294.274L1208.79 329.551L1243.97 334.797L1249.23 299.519Z" fill="#601933"/>
<path fill-rule="evenodd" clip-rule="evenodd" d="M1154.19 213.227L1148.93 248.505L1184.12 253.751L1189.38 218.474L1154.19 213.227Z" fill="#601933"/>
<path d="M1016.24 757.321L985.162 751.97L979.785 783.19L1010.86 788.541L1016.24 757.321Z" fill="#601933"/>
<path fill-rule="evenodd" clip-rule="evenodd" d="M1135.15 809.948L1140.53 778.728L1109.46 773.376L1104.08 804.596L1135.15 809.948Z" fill="#601933"/>
<path d="M1162.04 653.843L1130.97 648.492L1125.59 679.712L1156.66 685.063L1162.04 653.843Z" fill="#601933"/>
<path fill-rule="evenodd" clip-rule="evenodd" d="M1006.67 627.085L1001.29 658.305L1032.37 663.657L1037.74 632.437L1006.67 627.085Z" fill="#601933"/>
<path d="M1041.93 793.893L1010.86 788.541L1005.48 819.761L1036.55 825.113L1041.93 793.893Z" fill="#601933"/>
<path fill-rule="evenodd" clip-rule="evenodd" d="M1171.6 784.079L1176.98 752.859L1145.91 747.508L1140.53 778.728L1171.6 784.079Z" fill="#601933"/>
<path d="M1136.34 617.272L1105.27 611.92L1099.89 643.14L1130.97 648.492L1136.34 617.272Z" fill="#601933"/>
<path fill-rule="evenodd" clip-rule="evenodd" d="M970.22 652.954L964.843 684.174L995.916 689.525L1001.29 658.305L970.22 652.954Z" fill="#601933"/>
<path d="M1104.08 804.596L1073.01 799.245L1067.63 830.465L1098.71 835.816L1104.08 804.596Z" fill="#601933"/>
<path fill-rule="evenodd" clip-rule="evenodd" d="M1182.36 721.634L1187.74 690.414L1156.66 685.063L1151.29 716.283L1182.36 721.634Z" fill="#601933"/>
<path d="M1074.19 606.568L1043.12 601.217L1037.74 632.437L1068.82 637.788L1074.19 606.568Z" fill="#601933"/>
<path fill-rule="evenodd" clip-rule="evenodd" d="M959.466 715.398L954.089 746.619L985.162 751.97L990.539 720.75L959.466 715.398Z" fill="#601933"/>
<path d="M1067.63 830.464L1036.55 825.113L1031.18 856.333L1062.25 861.684L1067.63 830.464Z" fill="#601933"/>
<path fill-rule="evenodd" clip-rule="evenodd" d="M1208.05 758.21L1213.43 726.986L1182.36 721.634L1176.98 752.859L1208.05 758.21Z" fill="#601933"/>
<path d="M1110.64 580.699L1079.57 575.348L1074.19 606.568L1105.26 611.919L1110.64 580.699Z" fill="#601933"/>
<path fill-rule="evenodd" clip-rule="evenodd" d="M933.77 678.823L928.392 710.047L959.465 715.398L964.843 684.174L933.77 678.823Z" fill="#601933"/>
<path d="M1005.48 819.761L974.408 814.41L969.031 845.63L1000.1 850.981L1005.48 819.761Z" fill="#601933"/>
<path fill-rule="evenodd" clip-rule="evenodd" d="M1197.3 820.651L1202.68 789.43L1171.6 784.079L1166.23 815.299L1197.3 820.651Z" fill="#601933"/>
<path d="M1172.79 591.403L1141.72 586.052L1136.34 617.272L1167.42 622.623L1172.79 591.403Z" fill="#601933"/>
<path fill-rule="evenodd" clip-rule="evenodd" d="M944.523 616.382L939.147 647.603L970.22 652.954L975.596 621.734L944.523 616.382Z" fill="#601933"/>
<path d="M1031.18 856.333L1000.1 850.981L994.728 882.202L1025.8 887.553L1031.18 856.333Z" fill="#601933"/>
<path fill-rule="evenodd" clip-rule="evenodd" d="M1233.75 794.782L1239.13 763.562L1208.05 758.21L1202.68 789.43L1233.75 794.782Z" fill="#601933"/>
<path d="M1147.1 554.831L1116.02 549.48L1110.65 580.7L1141.72 586.052L1147.1 554.831Z" fill="#601933"/>
<path fill-rule="evenodd" clip-rule="evenodd" d="M908.073 642.251L902.697 673.471L933.77 678.823L939.146 647.603L908.073 642.251Z" fill="#601933"/>
<path d="M994.728 882.202L963.655 876.85L958.279 908.07L989.352 913.422L994.728 882.202Z" fill="#601933"/>
<path fill-rule="evenodd" clip-rule="evenodd" d="M1259.45 831.353L1264.82 800.133L1233.75 794.782L1228.37 826.002L1259.45 831.353Z" fill="#601933"/>
<path d="M1183.55 528.963L1152.47 523.611L1147.1 554.831L1178.17 560.183L1183.55 528.963Z" fill="#601933"/>
<path fill-rule="evenodd" clip-rule="evenodd" d="M882.377 605.68L877 636.9L908.073 642.251L913.45 611.031L882.377 605.68Z" fill="#601933"/>
<path d="M1063.44 669.008L1032.37 663.657L1026.99 694.877L1058.06 700.228L1063.44 669.008Z" fill="#601933"/>
<path fill-rule="evenodd" clip-rule="evenodd" d="M1047.31 762.673L1052.68 731.453L1021.61 726.101L1016.23 757.321L1047.31 762.673Z" fill="#601933"/>
<path d="M1114.83 742.156L1083.76 736.805L1078.39 768.025L1109.46 773.376L1114.83 742.156Z" fill="#601933"/>
<path fill-rule="evenodd" clip-rule="evenodd" d="M1094.52 674.36L1089.14 705.58L1120.21 710.932L1125.59 679.712L1094.52 674.36Z" fill="#601933"/>
<path d="M1026.99 694.877L995.916 689.525L990.539 720.745L1021.61 726.097L1026.99 694.877Z" fill="#601933"/>
<path fill-rule="evenodd" clip-rule="evenodd" d="M1073.01 799.245L1078.39 768.025L1047.31 762.673L1041.93 793.893L1073.01 799.245Z" fill="#601933"/>
<path d="M1151.29 716.283L1120.21 710.932L1114.84 742.152L1145.91 747.503L1151.29 716.283Z" fill="#601933"/>
<path fill-rule="evenodd" clip-rule="evenodd" d="M1068.82 637.788L1063.44 669.008L1094.52 674.36L1099.89 643.14L1068.82 637.788Z" fill="#601933"/>
</g>
<g opacity="0.5">
<path d="M1436.12 889.463H1409.87V915.77H1436.12V889.463Z" fill="#601933"/>
<path fill-rule="evenodd" clip-rule="evenodd" d="M1541.13 915.77V889.463H1514.88V915.77H1541.13Z" fill="#601933"/>
<path d="M1541.13 784.23H1514.88V810.537H1541.13V784.23Z" fill="#601933"/>
<path fill-rule="evenodd" clip-rule="evenodd" d="M1409.87 784.23V810.537H1436.12V784.23H1409.87Z" fill="#601933"/>
<path d="M1462.37 915.77H1436.12V942.078H1462.37V915.77Z" fill="#601933"/>
<path fill-rule="evenodd" clip-rule="evenodd" d="M1567.39 889.463V863.156H1541.13V889.463H1567.39Z" fill="#601933"/>
<path d="M1514.88 757.922H1488.63V784.23H1514.88V757.922Z" fill="#601933"/>
<path fill-rule="evenodd" clip-rule="evenodd" d="M1383.61 810.537V836.844H1409.87V810.537H1383.61Z" fill="#601933"/>
<path d="M1514.88 915.77H1488.63V942.078H1514.88V915.77Z" fill="#601933"/>
<path fill-rule="evenodd" clip-rule="evenodd" d="M1567.39 836.844V810.537H1541.13V836.844H1567.39Z" fill="#601933"/>
<path d="M1462.37 757.922H1436.12V784.23H1462.37V757.922Z" fill="#601933"/>
<path fill-rule="evenodd" clip-rule="evenodd" d="M1383.61 863.156V889.463H1409.87V863.156H1383.61Z" fill="#601933"/>
<path d="M1488.62 942.078H1462.37V968.385H1488.62V942.078Z" fill="#601933"/>
<path fill-rule="evenodd" clip-rule="evenodd" d="M1593.64 863.156V836.844H1567.39V863.156H1593.64Z" fill="#601933"/>
<path d="M1488.62 731.615H1462.37V757.922H1488.62V731.615Z" fill="#601933"/>
<path fill-rule="evenodd" clip-rule="evenodd" d="M1357.36 836.844V863.156H1383.61V836.844H1357.36Z" fill="#601933"/>
<path d="M1436.12 942.078H1409.87V968.385H1436.12V942.078Z" fill="#601933"/>
<path fill-rule="evenodd" clip-rule="evenodd" d="M1593.64 915.77V889.463H1567.39V915.77H1593.64Z" fill="#601933"/>
<path d="M1541.13 731.615H1514.88V757.922H1541.13V731.615Z" fill="#601933"/>
<path fill-rule="evenodd" clip-rule="evenodd" d="M1357.36 784.23V810.537H1383.61V784.23H1357.36Z" fill="#601933"/>
<path d="M1462.37 968.385H1436.12V994.693H1462.37V968.385Z" fill="#601933"/>
<path fill-rule="evenodd" clip-rule="evenodd" d="M1619.89 889.463V863.156H1593.64V889.463H1619.89Z" fill="#601933"/>
<path d="M1514.88 705.307H1488.63V731.615H1514.88V705.307Z" fill="#601933"/>
<path fill-rule="evenodd" clip-rule="evenodd" d="M1331.11 810.537V836.844H1357.36V810.537H1331.11Z" fill="#601933"/>
<path d="M1436.12 994.693H1409.87V1021H1436.12V994.693Z" fill="#601933"/>
<path fill-rule="evenodd" clip-rule="evenodd" d="M1646.14 915.77V889.463H1619.89V915.77H1646.14Z" fill="#601933"/>
<path d="M1541.13 679H1514.88V705.307H1541.13V679Z" fill="#601933"/>
<path fill-rule="evenodd" clip-rule="evenodd" d="M1304.86 784.23V810.537H1331.11V784.23H1304.86Z" fill="#601933"/>
<path d="M1462.37 810.537H1436.12V836.844H1462.37V810.537Z" fill="#601933"/>
<path fill-rule="evenodd" clip-rule="evenodd" d="M1462.37 889.463V863.156H1436.12V889.463H1462.37Z" fill="#601933"/>
<path d="M1514.88 863.156H1488.63V889.463H1514.88V863.156Z" fill="#601933"/>
<path fill-rule="evenodd" clip-rule="evenodd" d="M1488.63 810.537V836.844H1514.88V810.537H1488.63Z" fill="#601933"/>
<path d="M1436.12 836.844H1409.87V863.152H1436.12V836.844Z" fill="#601933"/>
<path fill-rule="evenodd" clip-rule="evenodd" d="M1488.63 915.77V889.463H1462.37V915.77H1488.63Z" fill="#601933"/>
<path d="M1541.13 836.844H1514.88V863.152H1541.13V836.844Z" fill="#601933"/>
<path fill-rule="evenodd" clip-rule="evenodd" d="M1462.37 784.23V810.537H1488.63V784.23H1462.37Z" fill="#601933"/>
<g clip-path="url(#clip2_21_2060)">
<path d="M1372.9 215.757L1348.99 242.098L1375.4 266.071L1399.31 239.731L1372.9 215.757Z" fill="#601933"/>
<path fill-rule="evenodd" clip-rule="evenodd" d="M1494.96 134.365L1468.55 110.392L1444.64 136.732L1471.05 160.705L1494.96 134.365Z" fill="#601933"/>
<path d="M1362.91 14.4953L1339 40.8358L1365.41 64.809L1389.32 38.4685L1362.91 14.4953Z" fill="#601933"/>
<path fill-rule="evenodd" clip-rule="evenodd" d="M1243.35 146.202L1269.76 170.175L1293.67 143.834L1267.26 119.861L1243.35 146.202Z" fill="#601933"/>
<path d="M1423.22 213.39L1399.31 239.731L1425.72 263.704L1449.63 237.363L1423.22 213.39Z" fill="#601933"/>
<path fill-rule="evenodd" clip-rule="evenodd" d="M1492.46 84.0512L1466.05 60.078L1442.14 86.4185L1468.55 110.392L1492.46 84.0512Z" fill="#601933"/>
<path d="M1312.59 16.8626L1288.68 43.203L1315.09 67.1763L1339 40.8358L1312.59 16.8626Z" fill="#601933"/>
<path fill-rule="evenodd" clip-rule="evenodd" d="M1245.85 196.515L1272.26 220.488L1296.17 194.148L1269.76 170.175L1245.85 196.515Z" fill="#601933"/>
<path d="M1471.05 160.705L1447.14 187.046L1473.54 211.019L1497.46 184.679L1471.05 160.705Z" fill="#601933"/>
<path fill-rule="evenodd" clip-rule="evenodd" d="M1439.64 36.1013L1413.23 12.128L1389.32 38.4685L1415.73 62.4418L1439.64 36.1013Z" fill="#601933"/>
<path d="M1264.76 69.5473L1240.85 95.8878L1267.26 119.861L1291.17 93.5206L1264.76 69.5473Z" fill="#601933"/>
<path fill-rule="evenodd" clip-rule="evenodd" d="M1298.67 244.465L1325.08 268.438L1348.99 242.098L1322.58 218.125L1298.67 244.465Z" fill="#601933"/>
<path d="M1473.54 211.023L1449.63 237.363L1476.04 261.337L1499.95 234.996L1473.54 211.023Z" fill="#601933"/>
<path fill-rule="evenodd" clip-rule="evenodd" d="M1489.96 33.7375L1463.55 9.76082L1439.64 36.1013L1466.05 60.078L1489.96 33.7375Z" fill="#601933"/>
<path d="M1262.26 19.2336L1238.35 45.5741L1264.76 69.5473L1288.67 43.2068L1262.26 19.2336Z" fill="#601933"/>
<path fill-rule="evenodd" clip-rule="evenodd" d="M1248.35 246.829L1274.76 270.806L1298.67 244.465L1272.26 220.488L1248.35 246.829Z" fill="#601933"/>
<path d="M1425.72 263.704L1401.81 290.044L1428.22 314.018L1452.13 287.677L1425.72 263.704Z" fill="#601933"/>
<path fill-rule="evenodd" clip-rule="evenodd" d="M1542.78 81.684L1516.37 57.7108L1492.46 84.0512L1518.87 108.024L1542.78 81.684Z" fill="#601933"/>
<path d="M1310.09 -33.4511L1286.18 -7.11066L1312.59 16.8626L1336.5 -9.4779L1310.09 -33.4511Z" fill="#601933"/>
<path fill-rule="evenodd" clip-rule="evenodd" d="M1195.53 198.882L1221.94 222.856L1245.85 196.515L1219.44 172.542L1195.53 198.882Z" fill="#601933"/>
<path d="M1476.04 261.337L1452.13 287.677L1478.54 311.65L1502.45 285.31L1476.04 261.337Z" fill="#601933"/>
<path fill-rule="evenodd" clip-rule="evenodd" d="M1540.28 31.3702L1513.87 7.39699L1489.96 33.7375L1516.37 57.7107L1540.28 31.3702Z" fill="#601933"/>
<path d="M1259.77 -31.0839L1235.86 -4.74341L1262.27 19.2298L1286.18 -7.11065L1259.77 -31.0839Z" fill="#601933"/>
<path fill-rule="evenodd" clip-rule="evenodd" d="M1198.03 249.196L1224.44 273.169L1248.35 246.829L1221.94 222.856L1198.03 249.196Z" fill="#601933"/>
<path d="M1478.54 311.65L1454.63 337.991L1481.04 361.964L1504.95 335.624L1478.54 311.65Z" fill="#601933"/>
<path fill-rule="evenodd" clip-rule="evenodd" d="M1590.6 29.0031L1564.19 5.02982L1540.28 31.3703L1566.69 55.3435L1590.6 29.0031Z" fill="#601933"/>
<path fill-rule="evenodd" clip-rule="evenodd" d="M1147.71 251.563L1174.12 275.537L1198.03 249.196L1171.62 225.223L1147.71 251.563Z" fill="#601933"/>
<path d="M1317.58 117.494L1293.67 143.834L1320.08 167.807L1343.99 141.467L1317.58 117.494Z" fill="#601933"/>
<path fill-rule="evenodd" clip-rule="evenodd" d="M1396.81 189.417L1370.4 165.444L1346.49 191.784L1372.9 215.757L1396.81 189.417Z" fill="#601933"/>
<path d="M1418.23 112.759L1394.32 139.099L1420.73 163.073L1444.64 136.732L1418.23 112.759Z" fill="#601933"/>
<path fill-rule="evenodd" clip-rule="evenodd" d="M1341.5 91.1495L1367.9 115.123L1391.82 88.7823L1365.41 64.809L1341.5 91.1495Z" fill="#601933"/>
<path d="M1320.08 167.807L1296.17 194.148L1322.58 218.121L1346.49 191.781L1320.08 167.807Z" fill="#601933"/>
<path fill-rule="evenodd" clip-rule="evenodd" d="M1447.14 187.046L1420.73 163.073L1396.81 189.417L1423.22 213.39L1447.14 187.046Z" fill="#601933"/>
<path d="M1415.73 62.4418L1391.82 88.7823L1418.22 112.755L1442.14 86.415L1415.73 62.4418Z" fill="#601933"/>
<path fill-rule="evenodd" clip-rule="evenodd" d="M1291.17 93.5206L1317.58 117.494L1341.5 91.1495L1315.09 67.1763L1291.17 93.5206Z" fill="#601933"/>
</g>
<path d="M1203.97 686.097L1168.78 680.852L1163.52 716.129L1198.71 721.375L1203.97 686.097Z" fill="#601933"/>
<path fill-rule="evenodd" clip-rule="evenodd" d="M1339.46 742.357L1344.72 707.079L1309.53 701.834L1304.27 737.111L1339.46 742.357Z" fill="#601933"/>
<path d="M1365.75 565.964L1330.57 560.719L1325.31 595.996L1360.49 601.242L1365.75 565.964Z" fill="#601933"/>
<path fill-rule="evenodd" clip-rule="evenodd" d="M1189.82 539.737L1184.56 575.014L1219.74 580.26L1225 544.982L1189.82 539.737Z" fill="#601933"/>
<path d="M1233.89 726.62L1198.71 721.374L1193.45 756.652L1228.63 761.897L1233.89 726.62Z" fill="#601933"/>
<path fill-rule="evenodd" clip-rule="evenodd" d="M1379.9 712.324L1385.16 677.047L1349.97 671.802L1344.71 707.079L1379.9 712.324Z" fill="#601933"/>
<path d="M1335.82 525.441L1300.64 520.196L1295.38 555.474L1330.57 560.719L1335.82 525.441Z" fill="#601933"/>
<path fill-rule="evenodd" clip-rule="evenodd" d="M1149.37 569.769L1144.11 605.046L1179.3 610.292L1184.56 575.014L1149.37 569.769Z" fill="#601933"/>
<path d="M1304.27 737.111L1269.08 731.866L1263.82 767.143L1299.01 772.389L1304.27 737.111Z" fill="#601933"/>
<path fill-rule="evenodd" clip-rule="evenodd" d="M1390.42 641.764L1395.68 606.487L1360.49 601.242L1355.23 636.519L1390.42 641.764Z" fill="#601933"/>
<path d="M1265.45 514.95L1230.26 509.705L1225 544.982L1260.19 550.227L1265.45 514.95Z" fill="#601933"/>
<path fill-rule="evenodd" clip-rule="evenodd" d="M1138.85 640.329L1133.59 675.606L1168.78 680.852L1174.04 645.574L1138.85 640.329Z" fill="#601933"/>
<path d="M1263.82 767.143L1228.63 761.897L1223.38 797.175L1258.56 802.42L1263.82 767.143Z" fill="#601933"/>
<path fill-rule="evenodd" clip-rule="evenodd" d="M1420.34 682.292L1425.6 647.01L1390.42 641.764L1385.16 677.047L1420.34 682.292Z" fill="#601933"/>
<path d="M1305.89 484.918L1270.71 479.673L1265.45 514.95L1300.63 520.195L1305.89 484.918Z" fill="#601933"/>
<path fill-rule="evenodd" clip-rule="evenodd" d="M1108.93 599.801L1103.67 635.084L1138.85 640.329L1144.11 605.046L1108.93 599.801Z" fill="#601933"/>
<path d="M1193.45 756.652L1158.26 751.407L1153 786.684L1188.19 791.929L1193.45 756.652Z" fill="#601933"/>
<path fill-rule="evenodd" clip-rule="evenodd" d="M1409.83 752.847L1415.09 717.57L1379.9 712.324L1374.64 747.602L1409.83 752.847Z" fill="#601933"/>
<path d="M1376.27 495.409L1341.08 490.164L1335.82 525.441L1371.01 530.687L1376.27 495.409Z" fill="#601933"/>
<path fill-rule="evenodd" clip-rule="evenodd" d="M1119.45 529.246L1114.19 564.524L1149.37 569.769L1154.63 534.491L1119.45 529.246Z" fill="#601933"/>
<path d="M1223.38 797.175L1188.19 791.929L1182.93 827.207L1218.12 832.452L1223.38 797.175Z" fill="#601933"/>
<path fill-rule="evenodd" clip-rule="evenodd" d="M1450.27 722.815L1455.53 687.538L1420.35 682.292L1415.09 717.57L1450.27 722.815Z" fill="#601933"/>
<path d="M1346.34 454.887L1311.16 449.641L1305.9 484.919L1341.08 490.164L1346.34 454.887Z" fill="#601933"/>
<path fill-rule="evenodd" clip-rule="evenodd" d="M1079 559.278L1073.74 594.556L1108.93 599.801L1114.19 564.524L1079 559.278Z" fill="#601933"/>
<path d="M1182.93 827.207L1147.75 821.962L1142.49 857.239L1177.67 862.484L1182.93 827.207Z" fill="#601933"/>
<path fill-rule="evenodd" clip-rule="evenodd" d="M1480.2 763.338L1485.46 728.06L1450.27 722.815L1445.01 758.093L1480.2 763.338Z" fill="#601933"/>
<path d="M1386.79 424.854L1351.6 419.609L1346.34 454.887L1381.53 460.132L1386.79 424.854Z" fill="#601933"/>
<path fill-rule="evenodd" clip-rule="evenodd" d="M1049.07 518.755L1043.82 554.033L1079 559.278L1084.26 524.001L1049.07 518.755Z" fill="#601933"/>
<path d="M1254.93 585.505L1219.74 580.26L1214.49 615.537L1249.67 620.782L1254.93 585.505Z" fill="#601933"/>
<path fill-rule="evenodd" clip-rule="evenodd" d="M1239.15 691.342L1244.41 656.065L1209.23 650.82L1203.97 686.097L1239.15 691.342Z" fill="#601933"/>
<path d="M1314.79 666.556L1279.6 661.311L1274.34 696.588L1309.53 701.834L1314.79 666.556Z" fill="#601933"/>
<path fill-rule="evenodd" clip-rule="evenodd" d="M1290.12 590.751L1284.86 626.028L1320.05 631.274L1325.31 595.996L1290.12 590.751Z" fill="#601933"/>
<path d="M1214.49 615.537L1179.3 610.292L1174.04 645.569L1209.23 650.814L1214.49 615.537Z" fill="#601933"/>
<path fill-rule="evenodd" clip-rule="evenodd" d="M1269.08 731.866L1274.34 696.588L1239.15 691.342L1233.89 726.62L1269.08 731.866Z" fill="#601933"/>
<path d="M1355.23 636.519L1320.05 631.274L1314.79 666.551L1349.97 671.797L1355.23 636.519Z" fill="#601933"/>
<path fill-rule="evenodd" clip-rule="evenodd" d="M1260.19 550.227L1254.93 585.505L1290.12 590.751L1295.38 555.474L1260.19 550.227Z" fill="#601933"/>
<path d="M1621.97 123.097L1586.78 117.852L1581.52 153.129L1616.71 158.375L1621.97 123.097Z" fill="#601933"/>
<path fill-rule="evenodd" clip-rule="evenodd" d="M1757.46 179.357L1762.72 144.079L1727.53 138.834L1722.27 174.111L1757.46 179.357Z" fill="#601933"/>
<path fill-rule="evenodd" clip-rule="evenodd" d="M1607.82 -23.2632L1602.56 12.0142L1637.74 17.2596L1643 -18.0179L1607.82 -23.2632Z" fill="#601933"/>
<path d="M1651.89 163.62L1616.71 158.374L1611.45 193.652L1646.63 198.897L1651.89 163.62Z" fill="#601933"/>
<path fill-rule="evenodd" clip-rule="evenodd" d="M1567.37 6.76892L1562.11 42.0464L1597.3 47.2917L1602.56 12.0143L1567.37 6.76892Z" fill="#601933"/>
<path d="M1722.27 174.111L1687.08 168.866L1681.82 204.143L1717.01 209.389L1722.27 174.111Z" fill="#601933"/>
<path fill-rule="evenodd" clip-rule="evenodd" d="M1556.85 77.3289L1551.59 112.606L1586.78 117.852L1592.04 82.5743L1556.85 77.3289Z" fill="#601933"/>
<path d="M1681.82 204.143L1646.63 198.897L1641.38 234.175L1676.56 239.42L1681.82 204.143Z" fill="#601933"/>
<path fill-rule="evenodd" clip-rule="evenodd" d="M1526.93 36.801L1521.67 72.0836L1556.85 77.3289L1562.11 42.0464L1526.93 36.801Z" fill="#601933"/>
<path d="M1611.45 193.652L1576.26 188.407L1571 223.684L1606.19 228.929L1611.45 193.652Z" fill="#601933"/>
<path fill-rule="evenodd" clip-rule="evenodd" d="M1537.45 -33.7539L1532.19 1.52358L1567.37 6.76892L1572.63 -28.5085L1537.45 -33.7539Z" fill="#601933"/>
<path d="M1641.38 234.175L1606.19 228.929L1600.93 264.207L1636.12 269.452L1641.38 234.175Z" fill="#601933"/>
<path fill-rule="evenodd" clip-rule="evenodd" d="M1497 -3.72177L1491.74 31.5557L1526.93 36.801L1532.19 1.52357L1497 -3.72177Z" fill="#601933"/>
<path d="M1600.93 264.207L1565.75 258.962L1560.49 294.239L1595.67 299.484L1600.93 264.207Z" fill="#601933"/>
<path d="M1672.93 22.5049L1637.74 17.2596L1632.49 52.537L1667.67 57.7824L1672.93 22.5049Z" fill="#601933"/>
<path fill-rule="evenodd" clip-rule="evenodd" d="M1657.15 128.342L1662.41 93.0649L1627.23 87.8196L1621.97 123.097L1657.15 128.342Z" fill="#601933"/>
<path d="M1732.79 103.556L1697.6 98.311L1692.34 133.588L1727.53 138.834L1732.79 103.556Z" fill="#601933"/>
<path fill-rule="evenodd" clip-rule="evenodd" d="M1708.12 27.751L1702.86 63.0284L1738.05 68.2738L1743.31 32.9963L1708.12 27.751Z" fill="#601933"/>
<path d="M1632.49 52.537L1597.3 47.2917L1592.04 82.5691L1627.23 87.8145L1632.49 52.537Z" fill="#601933"/>
<path fill-rule="evenodd" clip-rule="evenodd" d="M1687.08 168.866L1692.34 133.588L1657.15 128.342L1651.89 163.62L1687.08 168.866Z" fill="#601933"/>
<path fill-rule="evenodd" clip-rule="evenodd" d="M1678.19 -12.7726L1672.93 22.5049L1708.12 27.751L1713.38 -7.52645L1678.19 -12.7726Z" fill="#601933"/>
<path d="M1540.24 531.321L1509.16 525.97L1503.79 557.19L1534.86 562.541L1540.24 531.321Z" fill="#601933"/>
<path fill-rule="evenodd" clip-rule="evenodd" d="M1659.15 583.948L1664.53 552.728L1633.46 547.376L1628.08 578.596L1659.15 583.948Z" fill="#601933"/>
<path d="M1686.04 427.843L1654.97 422.492L1649.59 453.712L1680.66 459.063L1686.04 427.843Z" fill="#601933"/>
<path fill-rule="evenodd" clip-rule="evenodd" d="M1530.67 401.085L1525.29 432.305L1556.37 437.657L1561.74 406.437L1530.67 401.085Z" fill="#601933"/>
<path d="M1565.93 567.893L1534.86 562.541L1529.48 593.761L1560.55 599.113L1565.93 567.893Z" fill="#601933"/>
<path fill-rule="evenodd" clip-rule="evenodd" d="M1695.6 558.079L1700.98 526.859L1669.91 521.508L1664.53 552.728L1695.6 558.079Z" fill="#601933"/>
<path d="M1660.34 391.272L1629.27 385.92L1623.89 417.14L1654.97 422.492L1660.34 391.272Z" fill="#601933"/>
<path fill-rule="evenodd" clip-rule="evenodd" d="M1494.22 426.954L1488.84 458.174L1519.92 463.525L1525.29 432.305L1494.22 426.954Z" fill="#601933"/>
<path d="M1628.08 578.596L1597.01 573.245L1591.63 604.465L1622.71 609.816L1628.08 578.596Z" fill="#601933"/>
<path fill-rule="evenodd" clip-rule="evenodd" d="M1706.36 495.634L1711.74 464.414L1680.66 459.063L1675.29 490.283L1706.36 495.634Z" fill="#601933"/>
<path d="M1598.19 380.568L1567.12 375.217L1561.74 406.437L1592.82 411.788L1598.19 380.568Z" fill="#601933"/>
<path fill-rule="evenodd" clip-rule="evenodd" d="M1483.47 489.399L1478.09 520.619L1509.16 525.97L1514.54 494.75L1483.47 489.399Z" fill="#601933"/>
<path d="M1591.63 604.464L1560.55 599.113L1555.18 630.333L1586.25 635.684L1591.63 604.464Z" fill="#601933"/>
<path fill-rule="evenodd" clip-rule="evenodd" d="M1732.05 532.21L1737.43 500.986L1706.36 495.634L1700.98 526.859L1732.05 532.21Z" fill="#601933"/>
<path d="M1634.64 354.699L1603.57 349.348L1598.19 380.568L1629.26 385.919L1634.64 354.699Z" fill="#601933"/>
<path fill-rule="evenodd" clip-rule="evenodd" d="M1457.77 452.823L1452.39 484.047L1483.47 489.398L1488.84 458.174L1457.77 452.823Z" fill="#601933"/>
<path d="M1529.48 593.761L1498.41 588.41L1493.03 619.63L1524.1 624.981L1529.48 593.761Z" fill="#601933"/>
<path fill-rule="evenodd" clip-rule="evenodd" d="M1721.3 594.651L1726.68 563.43L1695.6 558.079L1690.23 589.299L1721.3 594.651Z" fill="#601933"/>
<path d="M1696.79 365.403L1665.72 360.052L1660.34 391.272L1691.42 396.623L1696.79 365.403Z" fill="#601933"/>
<path fill-rule="evenodd" clip-rule="evenodd" d="M1468.52 390.382L1463.15 421.603L1494.22 426.954L1499.6 395.734L1468.52 390.382Z" fill="#601933"/>
<path d="M1555.18 630.333L1524.1 624.981L1518.73 656.202L1549.8 661.553L1555.18 630.333Z" fill="#601933"/>
<path fill-rule="evenodd" clip-rule="evenodd" d="M1757.75 568.782L1763.13 537.562L1732.05 532.21L1726.68 563.43L1757.75 568.782Z" fill="#601933"/>
<path d="M1671.1 328.831L1640.02 323.48L1634.65 354.7L1665.72 360.052L1671.1 328.831Z" fill="#601933"/>
<path fill-rule="evenodd" clip-rule="evenodd" d="M1432.07 416.251L1426.7 447.471L1457.77 452.823L1463.15 421.603L1432.07 416.251Z" fill="#601933"/>
<path d="M1518.73 656.202L1487.66 650.85L1482.28 682.07L1513.35 687.422L1518.73 656.202Z" fill="#601933"/>
<path d="M1707.55 302.963L1676.47 297.611L1671.1 328.831L1702.17 334.183L1707.55 302.963Z" fill="#601933"/>
<path fill-rule="evenodd" clip-rule="evenodd" d="M1406.38 379.68L1401 410.9L1432.07 416.251L1437.45 385.031L1406.38 379.68Z" fill="#601933"/>
<path d="M1587.44 443.008L1556.37 437.657L1550.99 468.877L1582.06 474.228L1587.44 443.008Z" fill="#601933"/>
<path fill-rule="evenodd" clip-rule="evenodd" d="M1571.31 536.673L1576.68 505.453L1545.61 500.101L1540.23 531.321L1571.31 536.673Z" fill="#601933"/>
<path d="M1638.83 516.156L1607.76 510.805L1602.39 542.025L1633.46 547.376L1638.83 516.156Z" fill="#601933"/>
<path fill-rule="evenodd" clip-rule="evenodd" d="M1618.52 448.36L1613.14 479.58L1644.21 484.932L1649.59 453.712L1618.52 448.36Z" fill="#601933"/>
<path d="M1550.99 468.877L1519.92 463.525L1514.54 494.745L1545.61 500.097L1550.99 468.877Z" fill="#601933"/>
<path fill-rule="evenodd" clip-rule="evenodd" d="M1597.01 573.245L1602.39 542.025L1571.31 536.673L1565.93 567.893L1597.01 573.245Z" fill="#601933"/>
<path d="M1675.29 490.283L1644.21 484.932L1638.84 516.152L1669.91 521.503L1675.29 490.283Z" fill="#601933"/>
<path fill-rule="evenodd" clip-rule="evenodd" d="M1592.82 411.788L1587.44 443.008L1618.52 448.36L1623.89 417.14L1592.82 411.788Z" fill="#601933"/>
</g>
<defs>
<clipPath id="clip0_21_2060">
<rect width="519" height="644" fill="white" transform="translate(-161 263.283) rotate(-47.768)"/>
</clipPath>
<clipPath id="clip1_21_2060">
<rect width="519" height="644" fill="white" transform="translate(480 385.283) rotate(-47.768)"/>
</clipPath>
<clipPath id="clip2_21_2060">
<rect width="519" height="644" fill="white" transform="translate(1004 159.283) rotate(-47.768)"/>
</clipPath>
</defs>
</svg>
