<svg width="100" height="105" viewBox="0 0 100 105" fill="none" xmlns="http://www.w3.org/2000/svg">
<rect x="12" y="10" width="78" height="78" fill="#2C1AFF"/>
<path d="M45.1445 55.049H35.1445V65.049H45.1445V55.049Z" fill="#F0FFFA"/>
<path d="M35.1445 65.0892H25.1445V75.0892H35.1445V65.0892Z" fill="#F0FFFA"/>
<path d="M45.1445 35.0892H35.1445V45.0892H45.1445V35.0892Z" fill="#F0FFFA"/>
<path d="M35.1445 25.0892H25.1445V35.0892H35.1445V25.0892Z" fill="#F0FFFA"/>
<path d="M55.1445 45.049H45.1445V55.049H55.1445V45.049Z" fill="#F0FFFA"/>
<path d="M65.1641 55.0692H55.1641V65.0692H65.1641V55.0692Z" fill="#F0FFFA"/>
<path d="M75.1445 65.0892H65.1445V75.0892H75.1445V65.0892Z" fill="#F0FFFA"/>
<path d="M65.1445 35.049H55.1445V45.049H65.1445V35.049Z" fill="#F0FFFA"/>
<path d="M75.1445 25.0892H65.1445V35.0892H75.1445V25.0892Z" fill="#F0FFFA"/>
<path d="M95.1011 4.99341H5.10107V5.0127H5.0127V15.0127H5.10107C5.10406 38.3513 5.09802 61.674 5.10107 85.0127H5.0127V95.0127H95.0127V94.9934H95.1011V4.99341ZM15.1011 15.0127H85.1011V85.0127H15.1011C15.098 61.674 15.1041 38.3513 15.1011 15.0127Z" fill="#FC79FF"/>
</svg>
