<svg width="247" height="247" viewBox="0 0 247 247" fill="none" xmlns="http://www.w3.org/2000/svg">
<path d="M247 219.556H219.556V247H247V219.556Z" fill="#2C1AFF"/>
<path d="M219.556 192.112H192.112V219.556H219.556V192.112Z" fill="#2C1AFF"/>
<path d="M192.112 164.668H164.665V192.112H192.112V164.668Z" fill="#2C1AFF"/>
<path d="M82.3323 54.8882H54.8882V82.3323H82.3323V54.8882Z" fill="#2C1AFF"/>
<path d="M54.8884 27.4441H27.4443V54.8882H54.8884V27.4441Z" fill="#2C1AFF"/>
<path d="M27.4441 0H0V27.4441H27.4441V0Z" fill="#2C1AFF"/>
<path d="M27.4441 219.556H0V247H27.4441V219.556Z" fill="#2C1AFF"/>
<path d="M54.8884 192.112H27.4443V219.556H54.8884V192.112Z" fill="#2C1AFF"/>
<path d="M82.3323 164.668H54.8882V192.112H82.3323V164.668Z" fill="#2C1AFF"/>
<path d="M137.224 82.3323V54.8882V27.4441V0H109.779V27.4441V54.8882V82.3323H82.3354V109.776H54.8882H27.4441H0V137.224H27.4441H54.8882H82.3354V164.668H109.779V192.112V219.556V247H137.224V219.556V192.112V164.668H164.665V137.224H192.112H219.556H247V109.776H219.556H192.112H164.665V82.3323H137.224Z" fill="#2C1AFF"/>
<path d="M192.112 54.8882H164.665V82.3323H192.112V54.8882Z" fill="#2C1AFF"/>
<path d="M219.556 27.4441H192.112V54.8882H219.556V27.4441Z" fill="#2C1AFF"/>
<path d="M247 0H219.556V27.4441H247V0Z" fill="#2C1AFF"/>
</svg>
