<?xml version="1.0" encoding="utf-8"?>
<!-- Generator: Adobe Illustrator 28.0.0, SVG Export Plug-In . SVG Version: 6.00 Build 0)  -->
<svg version="1.1" id="Layer_1" xmlns="http://www.w3.org/2000/svg" xmlns:xlink="http://www.w3.org/1999/xlink" x="0px" y="0px"
	 viewBox="0 0 452 450" style="enable-background:new 0 0 452 450;" xml:space="preserve">
<style type="text/css">
	.st0{clip-path:url(#SVGID_00000116941015794655431190000006682904110086583977_);}
	.st1{clip-path:url(#SVGID_00000047022159721106027190000013052118785559737774_);}
	.st2{fill:#E9FFD2;}
	.st3{fill-rule:evenodd;clip-rule:evenodd;fill:#E9FFD2;}
</style>
<g>
	<defs>
		<rect id="SVGID_1_" width="452" height="450"/>
	</defs>
	<clipPath id="SVGID_00000165193052962690899450000014958472239939039382_">
		<use xlink:href="#SVGID_1_"  style="overflow:visible;"/>
	</clipPath>
	<g style="clip-path:url(#SVGID_00000165193052962690899450000014958472239939039382_);">
		<g>
			<defs>
				
					<rect id="SVGID_00000100381315369500713270000017626469429643765692_" x="14.3" y="-51.4" transform="matrix(0.6721 -0.7404 0.7404 0.6721 -110.5553 291.4673)" width="519" height="644"/>
			</defs>
			<clipPath id="SVGID_00000005960404919558184440000012955204686018313869_">
				<use xlink:href="#SVGID_00000100381315369500713270000017626469429643765692_"  style="overflow:visible;"/>
			</clipPath>
			<g style="clip-path:url(#SVGID_00000005960404919558184440000012955204686018313869_);">
				<path class="st2" d="M229.9,302.8L206,329.1l26.4,24l23.9-26.3L229.9,302.8z"/>
				<path class="st3" d="M352,221.4l-26.4-24l-23.9,26.3l26.4,24L352,221.4z"/>
				<path class="st2" d="M219.9,101.5L196,127.8l26.4,24l23.9-26.3L219.9,101.5z"/>
				<path class="st3" d="M100.4,233.2l26.4,24l23.9-26.3l-26.4-24L100.4,233.2z"/>
				<path class="st2" d="M280.2,300.4l-23.9,26.3l26.4,24l23.9-26.3L280.2,300.4z"/>
				<path class="st3" d="M349.5,171.1l-26.4-24l-23.9,26.3l26.4,24L349.5,171.1z"/>
				<path class="st2" d="M169.6,103.9l-23.9,26.3l26.4,24l23.9-26.3L169.6,103.9z"/>
				<path class="st3" d="M102.8,283.5l26.4,24l23.9-26.3l-26.4-24L102.8,283.5z"/>
				<path class="st2" d="M328,247.7L304.1,274l26.4,24l23.9-26.3L328,247.7z"/>
				<path class="st3" d="M296.6,123.1l-26.4-24l-23.9,26.3l26.4,24L296.6,123.1z"/>
				<path class="st2" d="M121.8,156.5l-23.9,26.3l26.4,24l23.9-26.3L121.8,156.5z"/>
				<path class="st3" d="M155.7,331.5l26.4,24l23.9-26.3l-26.4-24L155.7,331.5z"/>
				<path class="st2" d="M330.5,298l-23.9,26.3l26.4,24L357,322L330.5,298z"/>
				<path class="st3" d="M347,120.7l-26.4-24l-23.9,26.3l26.4,24L347,120.7z"/>
				<path class="st2" d="M119.3,106.2l-23.9,26.3l26.4,24l23.9-26.3L119.3,106.2z"/>
				<path class="st3" d="M105.3,333.8l26.4,24l23.9-26.3l-26.4-24L105.3,333.8z"/>
				<path class="st2" d="M282.7,350.7L258.8,377l26.4,24l23.9-26.3L282.7,350.7z"/>
				<path class="st3" d="M399.8,168.7l-26.4-24l-23.9,26.3l26.4,24L399.8,168.7z"/>
				<path class="st2" d="M167.1,53.5l-23.9,26.3l26.4,24l23.9-26.3L167.1,53.5z"/>
				<path class="st3" d="M52.5,285.9l26.4,24l23.9-26.3l-26.4-24L52.5,285.9z"/>
				<path class="st2" d="M333,348.3l-23.9,26.3l26.4,24l23.9-26.3L333,348.3z"/>
				<path class="st3" d="M397.3,118.4l-26.4-24L347,120.7l26.4,24L397.3,118.4z"/>
				<path class="st2" d="M116.8,55.9L92.9,82.3l26.4,24l23.9-26.3L116.8,55.9z"/>
				<path class="st3" d="M55,336.2l26.4,24l23.9-26.3l-26.4-24L55,336.2z"/>
				<path class="st2" d="M335.5,398.6L311.6,425l26.4,24l23.9-26.3L335.5,398.6z"/>
				<path class="st3" d="M447.6,116l-26.4-24l-23.9,26.3l26.4,24L447.6,116z"/>
				<path class="st2" d="M114.3,5.6L90.4,31.9l26.4,24l23.9-26.3L114.3,5.6z"/>
				<path class="st3" d="M4.7,338.6l26.4,24L55,336.2l-26.4-24L4.7,338.6z"/>
				<path class="st2" d="M174.6,204.5l-23.9,26.3l26.4,24l23.9-26.3L174.6,204.5z"/>
				<path class="st3" d="M253.8,276.4l-26.4-24l-23.9,26.3l26.4,24L253.8,276.4z"/>
				<path class="st2" d="M275.2,199.8l-23.9,26.3l26.4,24l23.9-26.3L275.2,199.8z"/>
				<path class="st3" d="M198.5,178.1l26.4,24l23.9-26.3l-26.4-24L198.5,178.1z"/>
				<path class="st2" d="M177.1,254.8l-23.9,26.3l26.4,24l23.9-26.3L177.1,254.8z"/>
				<path class="st3" d="M304.1,274l-26.4-24l-23.9,26.3l26.4,24L304.1,274z"/>
				<path class="st2" d="M272.7,149.4l-23.9,26.3l26.4,24l23.9-26.3L272.7,149.4z"/>
				<path class="st3" d="M148.2,180.5l26.4,24l23.9-26.3l-26.4-24L148.2,180.5z"/>
			</g>
		</g>
	</g>
</g>
</svg>
